<?xml version="1.0" encoding="UTF-8"?>
<svg width="166px" height="44px" viewBox="0 0 166 44" version="1.1" xmlns="http://www.w3.org/2000/svg" xmlns:xlink="http://www.w3.org/1999/xlink">
    <title>Logo</title>
    <g id="Product" stroke="none" stroke-width="1" fill="none" fill-rule="evenodd">
        <g id="Home-–-Desktop-–-10" transform="translate(-58.000000, -12.000000)" fill="#1999A9" fill-rule="nonzero">
            <path d="M85.9153486,12.0003438 L86.0463867,12.0047795 C98.7477417,13.1861607 108.675537,22.5678136 108.675537,33.9362218 C108.675537,46.1019627 97.309021,56 83.3380737,56 C69.366394,56 58,46.1019627 58,33.9362218 C58,28.1597325 60.56604,22.8969151 64.753479,18.9597356 C64.8199463,18.8012273 66.0531616,17.7759129 66.5444336,17.4343755 C69.1398926,15.4295232 73.5614624,14.1716496 77.7114258,14.7988164 C80.5186157,15.2231328 85.0601807,18.2478978 87.942627,20.9211919 C90.1484985,22.9667394 92.1550293,25.207401 94.2897339,27.3235814 C94.7329102,27.7626683 95.1956787,28.1820561 95.6630859,28.5957982 C96.0389404,28.9284093 96.4182129,29.2559087 96.8739624,29.4648168 C97.5751953,29.7863652 98.3876343,29.8063542 99.1185913,30.0383946 C99.604126,30.1926 100.104248,30.6882512 100.041931,31.2405126 C99.8973511,32.5201024 98.9869897,33.4078954 98.0494097,34.2253602 L97.6979838,34.5292408 C97.5813782,34.629854 97.4657898,34.7299962 97.3526611,34.8302953 C95.9089355,36.1108739 94.8738403,37.3667027 94.1480713,39.1583287 C92.8814087,42.2836034 92.1154175,45.9610326 89.7313232,48.4917027 C87.6480713,50.7027318 84.2192993,51.169315 81.4014893,50.192722 C78.7814941,49.284702 77.9118042,47.0933263 77.7105713,44.532932 C77.5259399,42.1823155 77.6956787,39.5005834 75.9980469,37.6098363 C74.8424072,36.3221471 73.4368896,35.8745152 71.7744751,35.6828038 C70.2703247,35.5092809 68.6279297,35.3415868 67.4758911,34.2787816 C64.3550415,31.3992345 65.0609741,26.335468 67.8267212,23.4926183 C72.1774292,19.0214116 78.9692383,21.0306279 83.5945435,23.8914983 C84.9662476,24.7400548 83.7025757,26.8963811 82.3253174,26.0443303 C78.4030151,23.6187627 71.7062988,21.3446385 68.7415771,26.3955571 C67.9838867,27.6866338 67.7233276,29.2065312 68.0842896,30.5594365 C68.2626953,31.2275731 68.5675659,31.8162419 69.0429688,32.3089787 C69.7971802,33.0905797 71.1535645,33.1125523 72.2507935,33.2427403 C75.2452393,33.5981786 77.8655396,35.1084325 79.1367798,37.9275853 C80.1143188,40.095493 80.0308838,42.4086644 80.241333,44.721317 C80.3116455,45.4949681 80.4240723,46.3907201 80.927063,47.0219457 C81.5421143,47.7939183 82.6585693,48.0175206 83.5876465,48.111881 C86.3383789,48.3915135 88.0604248,47.1054418 89.2650146,44.7446019 C90.5603027,42.2052342 91.2107544,39.3911778 92.444458,36.8216588 C93.0999756,35.456577 94.1531982,34.3483006 95.2697754,33.3388707 C95.7598267,32.8959691 96.2672729,32.4707372 96.7480469,32.0173833 C96.4138184,31.9313695 96.0820312,31.833759 95.7598267,31.6850011 C95.2109375,31.4313695 94.7338867,31.0663487 94.2712402,30.6836278 C93.7965698,30.2912328 93.3369141,29.8846929 92.8944092,29.4572637 C89.0961304,25.7866856 85.6690063,21.398792 80.9627075,18.7360112 C78.9816284,17.6149785 76.7871094,16.8947942 74.4851685,16.9894292 C71.6429443,17.1060674 69.0218506,18.4605748 66.8609619,20.2076756 C66.7922363,20.2632075 66.6928914,20.3470545 66.5629272,20.4592168 C62.7116089,23.9899327 60.3465576,28.7292973 60.3465576,33.9362218 C60.3465576,44.8195531 70.6609497,53.673618 83.3380737,53.673618 C96.0152588,53.673618 106.328613,44.8195531 106.328613,33.9362218 C106.328613,23.7661626 97.3226318,15.3696935 85.7975464,14.3126103 C84.9595337,14.2357518 84.5095825,13.3017919 84.9437866,12.5869328 L84.9437866,12.5869328 L84.9589233,12.5619084 C85.184082,12.186115 85.6074219,11.9640843 86.0463867,12.0047795 Z M95.784333,41.423065 C96.1799019,40.8456725 96.8678902,40.6421202 97.5052803,40.9755248 C97.7771309,41.1181944 98.0028389,41.4315794 98.082795,41.7208861 C98.1638496,42.0116576 98.1322945,42.424713 97.9563301,42.6815184 C97.4502876,43.4191588 97.0210884,44.2039183 96.6622017,45.0213622 C96.5634468,45.2637022 96.4664619,45.5068053 96.3806465,45.7539671 C96.1509712,46.4147948 95.5328072,46.7825316 94.8336494,46.6245726 C94.5336617,46.5569457 94.2347115,46.3103331 94.0818184,46.0518797 C93.9268501,45.7895812 93.8529366,45.3855589 93.9551094,45.0911864 C94.4042671,43.7976378 95.008271,42.5551451 95.784333,41.423065 Z M198.960982,29.394 C200.243697,29.394 201.26274,29.895709 201.995162,30.8864316 L201.995162,30.8864316 L201.995162,29.5768613 L203.803512,29.5768613 L203.803512,42.3300352 L201.995162,42.3300352 L201.995162,37.347125 C201.65483,37.8105039 201.2415,38.1725645 200.763473,38.426959 C200.217818,38.7157773 199.651656,38.8671445 199.081344,38.8761777 C198.516891,38.8866758 197.934615,38.7746152 197.360396,38.5482969 C196.788619,38.3224668 196.271285,38.0006895 195.822066,37.5949277 C195.373092,37.1879453 195.004684,36.6728086 194.725387,36.0636777 C194.44609,35.4545469 194.304,34.7960996 194.304,34.1066465 C194.304,32.8061094 194.75566,31.6842832 195.646773,30.7704648 C196.538863,29.857623 197.653609,29.394 198.960982,29.394 Z M207.212383,29.577 L207.212383,35.0845684 C207.212383,35.637791 207.409404,36.1182598 207.79832,36.5125469 C208.186992,36.9048809 208.665996,37.1045879 209.223613,37.1045879 C209.78123,37.1045879 210.262676,36.9048809 210.654033,36.511082 C211.045391,36.1182598 211.243145,35.6373027 211.243145,35.0845684 L211.243145,35.0845684 L211.243145,29.577 L213.052959,29.577 L213.052959,35.0845684 C213.052959,36.1309551 212.676494,37.0320781 211.93333,37.7625469 C211.191143,38.4930156 210.279521,38.8628887 209.223613,38.8628887 C208.168193,38.8628887 207.256328,38.4930156 206.514385,37.7625469 C205.772197,37.0320781 205.395,36.1309551 205.395,35.0845684 L205.395,35.0845684 L205.395,29.577 L207.212383,29.577 Z M218.845115,29.394 C219.586814,29.394 220.281883,29.5492734 220.908836,29.8556699 C221.535789,30.1620664 222.059227,30.5746641 222.464256,31.0822324 C222.86782,31.5883359 223.167381,32.1850156 223.354148,32.8554258 C223.540672,33.5251035 223.587547,34.225543 223.493309,34.937457 L223.493309,34.937457 L223.484031,35.0038633 L216.069969,35.0038633 C216.22866,35.6269102 216.568504,36.1396055 217.080711,36.5268125 C217.620018,36.9335508 218.24868,37.1403379 218.950096,37.1403379 C220.015037,37.1403379 220.923484,36.7250547 221.650779,35.9081602 L221.650779,35.9081602 L221.701561,35.8512754 L223.014305,37.0089902 L222.962303,37.0653867 C222.477195,37.6059141 221.907127,38.0336484 221.270164,38.3363828 C220.632225,38.638873 219.984275,38.8117246 219.341941,38.8500547 C219.239891,38.8556699 219.136375,38.8595762 219.032859,38.8595762 C218.495262,38.8595762 217.959617,38.7755918 217.434715,38.6107969 C216.807029,38.4135312 216.247703,38.1166562 215.770408,37.7284727 C215.290672,37.3383359 214.897117,36.8246641 214.600242,36.1996641 C214.302879,35.5753965 214.152,34.880084 214.152,34.133502 C214.152,33.2797422 214.359031,32.4811582 214.765281,31.7597227 C215.172508,31.0392637 215.743309,30.4577207 216.462547,30.0331602 C217.182029,29.609332 217.983055,29.394 218.845115,29.394 Z M153.169627,29.394 C153.911204,29.394 154.606028,29.5492734 155.233958,29.8556699 C155.861521,30.1620664 156.384104,30.5751523 156.788646,31.0822324 C157.192698,31.5888242 157.492015,32.1850156 157.679026,32.8554258 C157.865794,33.5255918 157.912425,34.2260312 157.817454,34.937457 L157.817454,34.937457 L157.808543,35.0038633 L150.394358,35.0038633 C150.552806,35.6269102 150.893016,36.1396055 151.405589,36.5268125 C151.944285,36.9335508 152.573436,37.1403379 153.275462,37.1403379 C154.339793,37.1403379 155.248362,36.7250547 155.975169,35.9081602 L155.975169,35.9081602 L156.025706,35.8512754 L157.338938,37.0089902 L157.287791,37.0653867 C156.801829,37.6059141 156.232127,38.0336484 155.594798,38.3363828 C154.956858,38.638873 154.308909,38.8117246 153.667674,38.8500547 C153.564036,38.8556699 153.461009,38.8595762 153.357249,38.8595762 C152.819773,38.8595762 152.283763,38.7755918 151.758982,38.6107969 C151.132151,38.4135312 150.572581,38.1166562 150.095042,37.7284727 C149.61555,37.3388242 149.221873,36.8246641 148.92451,36.1996641 C148.627635,35.5753965 148.477,34.880084 148.477,34.133502 C148.477,33.2792539 148.683421,32.4811582 149.090159,31.7597227 C149.497386,31.0392637 150.068187,30.4577207 150.787059,30.0331602 C151.506175,29.609332 152.308299,29.394 153.169627,29.394 Z M134.3131,29.3727957 C134.883412,29.3815848 135.449574,29.5331961 135.995473,29.8225027 C136.473988,30.0761649 136.887074,30.4387137 137.226674,30.9020926 L137.226674,30.9020926 L137.226674,29.5778738 L139.035512,29.5778738 L139.035512,38.6716238 L137.226674,38.6716238 L137.226674,37.3642508 C136.499135,38.354241 135.480092,38.8544852 134.193227,38.8544852 C132.885854,38.8544852 131.770863,38.3913504 130.878773,37.4780203 C129.987416,36.5649344 129.536,35.4435965 129.536,34.142327 C129.536,33.4528738 129.677357,32.7939383 129.956654,32.1852957 C130.235951,31.5759207 130.605336,31.060784 131.053822,30.654534 C131.501332,30.248284 132.019154,29.9274832 132.592396,29.7004324 C133.166371,29.4741141 133.742055,29.3613211 134.3131,29.3727957 Z M141.734247,29.577 L141.753046,29.6265605 L144.2362,36.1539043 L146.738153,29.577 L148.682367,29.577 L145.08996,38.6714824 L143.373163,38.6714824 L143.354364,38.6231426 L139.781,29.577 L141.734247,29.577 Z M174.19602,25.997 L174.216039,26.0431426 L179.581151,38.6710723 L177.539037,38.6710723 L177.519262,38.6241973 L176.041234,35.1864531 L170.715551,35.1864531 L169.209203,38.6710723 L167.176,38.6710723 L167.220678,38.5656035 L172.561742,25.997 L174.19602,25.997 Z M125.416619,25.997 L125.416619,27.8246367 L121.372674,27.8246367 L121.372674,38.6710723 L119.484734,38.6710723 L119.484734,27.8246367 L115.432,27.8246367 L115.432,25.997 L125.416619,25.997 Z M193.091337,29.5776895 L193.091337,38.6716217 L191.273682,38.6716217 L191.273682,29.5776895 L193.091337,29.5776895 Z M160.936648,25.9974653 L160.936648,38.6716168 L159.127362,38.6716168 L159.127362,25.9974653 L160.936648,25.9974653 Z M183.27135,25.814 C183.52135,25.814 183.774768,25.8679551 184.024279,25.9773301 C184.274523,26.0857285 184.479846,26.2380723 184.634387,26.4265488 L184.634387,26.4265488 L184.651721,26.4477891 L184.651721,28.692418 L184.507678,28.4321641 C184.17882,27.8357285 183.771105,27.5461777 183.262072,27.5461777 C183.076281,27.5461777 182.933947,27.5976914 182.828723,27.706334 C182.721789,27.8147324 182.669299,27.9548691 182.669299,28.1338242 L182.669299,28.1338242 L182.669299,29.5774277 L184.642199,29.5774277 L184.642199,31.3357285 L182.669299,31.3357285 L182.669299,38.6709336 L180.851428,38.6709336 L180.851428,31.3357285 L179.213,31.3357285 L179.213,29.5774277 L180.851428,29.5774277 L180.851428,28.1338242 C180.851428,27.4463242 181.081408,26.8806504 181.535998,26.4548691 C181.988879,26.0290879 182.573107,25.814 183.27135,25.814 Z M187.277814,29.577 L187.277814,31.0054668 C187.288557,30.9761699 187.300031,30.948582 187.311262,30.9212383 C187.386701,30.7371562 187.479963,30.5774883 187.586164,30.4439434 C187.690656,30.313084 187.798322,30.1971172 187.906477,30.0992168 C188.01927,29.9974102 188.15965,29.9124492 188.322492,29.8479961 C188.47923,29.7864727 188.626936,29.7378887 188.762922,29.7024883 C188.896955,29.665623 189.071027,29.6390117 189.278303,29.6211895 C189.47923,29.603123 189.661604,29.5921367 189.818586,29.5860332 C189.975568,29.5796855 190.174543,29.577 190.416975,29.577 L190.493146,29.577 L190.493146,31.292332 L189.367902,31.292332 C188.656965,31.292332 188.126691,31.5191387 187.791486,31.9683574 C187.45091,32.4239238 187.277814,33.0320781 187.277814,33.7745098 L187.277814,33.7745098 L187.277814,38.6705059 L185.468,38.6705059 L185.468,29.577 L187.277814,29.577 Z M126.402838,29.577 L126.402838,31.0066875 C126.413824,30.9771465 126.425543,30.948582 126.436773,30.9212383 C126.511969,30.7381328 126.604498,30.5774883 126.711676,30.4439434 C126.815924,30.3140605 126.92359,30.1976055 127.032477,30.0992168 C127.144049,29.9974102 127.283941,29.9129375 127.448004,29.8479961 C127.605719,29.7864727 127.753912,29.7374004 127.888189,29.7024883 C128.024664,29.665623 128.193731,29.6390117 128.40357,29.6211895 C128.604498,29.603123 128.786505,29.5921367 128.944342,29.5860332 C129.10108,29.5796855 129.300543,29.577 129.542242,29.577 L129.618414,29.577 L129.618414,31.292332 L128.493658,31.292332 C127.782721,31.292332 127.252203,31.5191387 126.916754,31.9683574 C126.575934,32.4239238 126.402838,33.0320781 126.402838,33.7745098 L126.402838,33.7745098 L126.402838,38.6705059 L124.594,38.6705059 L124.594,29.577 L126.402838,29.577 Z M199.110885,31.1347227 C198.272994,31.1347227 197.555953,31.4259824 196.981246,31.9984922 C196.40483,32.5722227 196.113082,33.284625 196.113082,34.1151914 C196.113082,34.9469785 196.40483,35.6620664 196.981246,36.2409238 C197.555953,36.8195371 198.272262,37.1134824 199.110885,37.1134824 C199.943648,37.1134824 200.658736,36.8190488 201.237105,36.2365293 C201.815963,35.654498 202.108932,34.940875 202.108932,34.1151914 C202.108932,33.284625 201.817184,32.5731992 201.2415,31.9984922 C200.666061,31.4259824 199.949264,31.1347227 199.110885,31.1347227 Z M134.343129,31.1359793 C133.504994,31.1359793 132.787709,31.4287039 132.212514,32.0080496 C131.636586,32.586907 131.345326,33.3024832 131.345326,34.133782 C131.345326,34.9643485 131.636586,35.6769949 132.21227,36.2502371 C132.787465,36.822991 133.504506,37.1130301 134.343129,37.1130301 C135.181264,37.1130301 135.897816,36.822991 136.4735,36.2502371 C137.049428,35.6765067 137.340688,34.9643485 137.340688,34.133782 C137.340688,33.3078543 137.04723,32.5947195 136.46935,32.0117117 C135.890492,31.4299246 135.175648,31.1359793 134.343129,31.1359793 Z M173.38706,28.7155059 L171.396703,33.4628203 L175.361303,33.4628203 L173.38706,28.7155059 Z M218.796043,31.1606016 C218.366355,31.1606016 217.960594,31.2431211 217.5895,31.4030332 C217.221336,31.5639219 216.891258,31.8188047 216.609764,32.1625547 C216.346336,32.4848203 216.166648,32.8690977 216.074852,33.3065977 L216.074852,33.3065977 L221.611717,33.3065977 C221.504295,32.8639707 221.310203,32.4767637 221.033348,32.1515684 C220.737693,31.8046445 220.395896,31.5500059 220.018211,31.3954648 C219.639061,31.2401914 219.228172,31.1606016 218.796043,31.1606016 Z M153.121287,31.1606016 C152.690501,31.1606016 152.284983,31.2431211 151.914378,31.4030332 C151.545848,31.5639219 151.216136,31.8188047 150.933909,32.1625547 C150.670726,32.4848203 150.491038,32.8688535 150.399119,33.3065977 L150.399119,33.3065977 L155.937083,33.3065977 C155.828929,32.8639707 155.634227,32.4757871 155.357981,32.1515684 C155.062083,31.8046445 154.72053,31.5500059 154.342479,31.3954648 C153.963206,31.2401914 153.552317,31.1606016 153.121287,31.1606016 Z M193.091337,25.9974653 L193.091337,28.13133 L191.273682,28.13133 L191.273682,25.9974653 L193.091337,25.9974653 Z" id="Logo"></path>
        </g>
    </g>
</svg>